<?xml version="1.0" encoding="UTF-8"?>
<svg xmlns="http://www.w3.org/2000/svg" xmlns:xlink="http://www.w3.org/1999/xlink"
     width="584" height="382" viewBox="0 0 584 382">
<defs>
</defs>
<rect x="0" y="0" width="584" height="382" fill="#2b2b2b" />
<text x="60.0" y="30" font-size="18.0" fill="#ffffff" font-family="'Helvetica Neue', Helvetica, Arial, sans-serif" font-weight="bold">VCF Expression Annotation Pipeline</text>
<path d="M80.0,163.0 L157.0,163.0 Q167.0,163.0,173.0,155.0 L191.0,131.0 Q197.0,123.0,207.0,123.0 L284.0,123.0" stroke="#2196F3" stroke-width="3.0" fill="none" stroke-linecap="round" stroke-linejoin="round" />
<path d="M344.0,163.0 L404.0,163.0" stroke="#2196F3" stroke-width="3.0" stroke-linecap="round" />
<path d="M404.0,163.0 L464.0,163.0" stroke="#2196F3" stroke-width="3.0" stroke-linecap="round" />
<path d="M284.0,123.0 L289.0,123.0 Q299.0,123.0,305.0,131.0 L323.0,155.0 Q329.0,163.0,339.0,163.0 L344.0,163.0" stroke="#2196F3" stroke-width="3.0" fill="none" stroke-linecap="round" stroke-linejoin="round" />
<path d="M80.0,120.0 L140.0,120.0" stroke="#4CAF50" stroke-width="3.0" stroke-linecap="round" />
<path d="M140.0,120.0 L284.0,120.0" stroke="#4CAF50" stroke-width="3.0" stroke-linecap="round" />
<rect x="75.0" y="115.0" width="10.0" height="10.0" rx="5.0" ry="5.0" fill="#ffffff" stroke="#333333" stroke-width="1.5" />
<rect x="75.0" y="158.0" width="10.0" height="10.0" rx="5.0" ry="5.0" fill="#ffffff" stroke="#333333" stroke-width="1.5" />
<rect x="135.0" y="115.0" width="10.0" height="10.0" rx="5.0" ry="5.0" fill="#ffffff" stroke="#333333" stroke-width="1.5" />
<rect x="279.0" y="115.0" width="10.0" height="13.0" rx="5.0" ry="5.0" fill="#ffffff" stroke="#333333" stroke-width="1.5" />
<rect x="339.0" y="158.0" width="10.0" height="10.0" rx="5.0" ry="5.0" fill="#ffffff" stroke="#333333" stroke-width="1.5" />
<rect x="399.0" y="158.0" width="10.0" height="10.0" rx="5.0" ry="5.0" fill="#ffffff" stroke="#333333" stroke-width="1.5" />
<rect x="459.0" y="158.0" width="10.0" height="10.0" rx="5.0" ry="5.0" fill="#ffffff" stroke="#333333" stroke-width="1.5" />
<text x="80.0" y="136.0" font-size="10.0" fill="#e0e0e0" font-family="'Helvetica Neue', Helvetica, Arial, sans-serif" text-anchor="middle" dominant-baseline="hanging">Transcript Counts</text>
<text x="80.0" y="179.0" font-size="10.0" fill="#e0e0e0" font-family="'Helvetica Neue', Helvetica, Arial, sans-serif" text-anchor="middle" dominant-baseline="hanging">Samplesheet</text>
<text x="140.0" y="104.0" font-size="10.0" fill="#e0e0e0" font-family="'Helvetica Neue', Helvetica, Arial, sans-serif" text-anchor="middle" dominant-baseline="auto">SPLIT_TRANSCRIPT_COUNTS</text>
<text x="284.0" y="139.0" font-size="10.0" fill="#e0e0e0" font-family="'Helvetica Neue', Helvetica, Arial, sans-serif" text-anchor="middle" dominant-baseline="hanging">VCF_EXPRESSION_ANNOTATOR</text>
<text x="344.0" y="179.0" font-size="10.0" fill="#e0e0e0" font-family="'Helvetica Neue', Helvetica, Arial, sans-serif" text-anchor="middle" dominant-baseline="hanging">CLEAN_VCF</text>
<text x="404.0" y="127.8" font-size="10.0" fill="#e0e0e0" font-family="'Helvetica Neue', Helvetica, Arial, sans-serif" text-anchor="middle" dominant-baseline="auto">VCF_TO_CSV</text>
<text x="464.0" y="147.0" font-size="10.0" fill="#e0e0e0" font-family="'Helvetica Neue', Helvetica, Arial, sans-serif" text-anchor="middle" dominant-baseline="auto">Output CSV</text>
<rect x="60.0" y="190.0" width="133.92" height="72.0" rx="6" ry="6" fill="rgba(0, 0, 0, 0.3)" />
<path d="M72.0,214.0 L96.0,214.0" stroke="#4CAF50" stroke-width="3.0" stroke-linecap="round" />
<text x="108.0" y="214.0" font-size="11.0" fill="#e0e0e0" font-family="'Helvetica Neue', Helvetica, Arial, sans-serif" dominant-baseline="central">Expression</text>
<path d="M72.0,238.0 L96.0,238.0" stroke="#2196F3" stroke-width="3.0" stroke-linecap="round" />
<text x="108.0" y="238.0" font-size="11.0" fill="#e0e0e0" font-family="'Helvetica Neue', Helvetica, Arial, sans-serif" dominant-baseline="central">VCF Processing</text>
<text x="554.0" y="374" font-size="8" fill="rgba(150, 150, 150, 0.6)" font-family="'Helvetica Neue', Helvetica, Arial, sans-serif" text-anchor="end">created with nf-metro v0.3.0</text>
</svg>